<svg width="63" height="63" viewBox="0 0 63 63" fill="none" xmlns="http://www.w3.org/2000/svg">
<g clip-path="url(#clip0_302_274)">
<path d="M20.1636 52.5347L6.44604 14.6162L44.4915 4.56908L51.2778 44.3113L36.8397 52.7446L20.1636 52.5347Z" fill="#E44F26"/>
<path d="M35.9911 49.4379L47.6588 42.6231L41.8584 8.66181L26.3074 12.7686L35.9911 49.4379Z" fill="#F1662A"/>
<path d="M30.1105 27.1699L23.8081 28.8342L22.0856 24.072L28.8225 22.2929L27.5647 17.5299L15.6226 20.6836L16.0743 21.9324L20.7097 34.7476L31.3683 31.9329L30.1105 27.1699ZM33.3769 39.5389L33.357 39.5508L27.6751 39.5199L26.333 35.811L21.5515 37.0737L24.1931 44.3741L34.6657 44.5064L34.6856 44.4945L33.3769 39.5389Z" fill="#EBEBEB"/>
<path d="M30.0936 27.1744L31.3514 31.9374L37.2162 30.3887L38.2959 36.7119L33.3613 39.5481L34.67 44.5037L43.7198 39.2175L43.5783 38.3945L41.3858 25.5605L41.1651 24.2506L30.0936 27.1744ZM27.5479 17.5344L28.8057 22.2974L40.3102 19.2593L40.1233 18.1646L39.7029 15.6926L39.4792 14.3836L27.5479 17.5344Z" fill="white"/>
</g>
<defs>
<clipPath id="clip0_302_274">
<rect width="51" height="51" fill="white" transform="translate(0 13.0217) rotate(-14.7931)"/>
</clipPath>
</defs>
</svg>
