<svg width="34" height="34" viewBox="0 0 34 34" fill="none" xmlns="http://www.w3.org/2000/svg">
<g clip-path="url(#clip0_302_267)">
<path d="M6.06548 25.3919L8.02905 2.37622L30.2285 6.27831L24.2236 28.5799L14.6897 29.5024L6.06548 25.3919Z" fill="#1572B6"/>
<path d="M15.0417 27.5786L22.7462 26.8333L27.8777 7.77552L18.803 6.18042L15.0417 27.5786Z" fill="#33A9DC"/>
<path d="M17.3598 14.3903L21.0376 15.0367L21.7914 12.2353L17.8601 11.5443L18.3486 8.76489L25.3174 9.98983L25.1198 10.7236L23.091 18.263L16.8713 17.1697L17.3598 14.3903Z" fill="white"/>
<path d="M16.1083 21.6111L16.0951 21.6125L13.147 20.2322L13.3388 17.9809L10.5486 17.4905L10.1709 21.9227L15.5859 24.5042L15.6 24.5029L16.1083 21.6111Z" fill="#EBEBEB"/>
<path d="M20.3332 17.6568L19.3445 21.3198L16.098 21.6113L15.5897 24.5031L21.5645 23.9255L21.6893 23.4636L23.1216 18.147L20.3332 17.6568Z" fill="white"/>
<path d="M18.3585 8.76655L17.8699 11.546L11.1565 10.3659L11.2106 9.73119L11.3315 8.29986L11.396 7.54272L18.3585 8.76655ZM17.3598 14.3902L16.8712 17.1696L13.8149 16.6324L13.869 15.9976L13.9908 14.5665L14.0552 13.8093L17.3598 14.3902Z" fill="#EBEBEB"/>
</g>
<defs>
<clipPath id="clip0_302_267">
<rect width="29.2155" height="29.2155" fill="white" transform="translate(5.05762) rotate(9.96929)"/>
</clipPath>
</defs>
</svg>
