<svg width="1440" height="2109" viewBox="0 0 1440 2109" fill="none" xmlns="http://www.w3.org/2000/svg">
<g opacity="0.8">
<path d="M328.244 1467.23C335.606 1405.52 352.119 1334.75 377.273 1256.88C403.556 1176.66 434.643 1098.55 470.318 1023.09C507.452 943.89 548.908 867.372 594.448 793.978C637.12 724.391 684.519 658.655 736.215 597.364C783.607 541.659 828.597 499.692 869.343 472.619C908.606 446.469 942.45 435.328 969.904 439.369C997.357 443.41 1016.94 462.459 1028.24 496.229C1039.89 530.864 1042.09 579.989 1034.73 641.698C1027.37 703.406 1010.85 774.467 985.701 852.05C959.421 932.283 928.316 1010.39 892.604 1085.84C855.542 1165.07 814.136 1241.61 768.628 1315.01C725.94 1384.58 678.542 1450.32 626.861 1511.62C579.162 1567.33 534.326 1609.3 493.631 1636.37C454.317 1662.52 420.472 1673.66 393.07 1669.62C365.667 1665.58 346.036 1646.53 334.737 1612.76C323.03 1578.12 320.883 1529 328.244 1467.29V1467.23ZM324.308 1471.85C293.633 1727.11 429.01 1747.2 626.247 1516.65C823.484 1286.09 1008.14 892.4 1038.61 637.137C1069.08 381.874 933.963 361.786 736.982 592.342C540.001 822.898 355.085 1216.59 324.564 1471.85H324.308Z" stroke="url(#paint0_linear_303_423)" stroke-width="0.2"/>
<path d="M294.093 1460.25C307.794 1392.53 331.312 1315.93 364.031 1233.21C397.803 1148.43 436.309 1066.16 479.316 986.897C523.42 904.916 571.819 825.98 624.253 750.51C672.471 680.184 725.459 614.197 782.738 553.146C835.038 498.364 883.095 458.476 925.579 434.635C966.478 411.545 1000.73 404.329 1026.96 413.103C1053.18 421.878 1070.31 446.238 1077.72 485.491C1085.39 525.899 1082.33 581.085 1068.62 648.74C1054.92 716.394 1031.41 793.054 998.686 875.775C964.916 960.564 926.393 1042.84 883.35 1122.09C839.263 1204.07 790.882 1283.01 738.464 1358.48C690.133 1428.8 637.043 1494.79 579.673 1555.84C527.373 1610.62 479.316 1650.51 436.883 1674.35C395.984 1697.44 361.73 1704.66 335.504 1695.88C309.277 1687.11 292.15 1662.75 284.737 1623.5C277.069 1583.09 280.085 1527.9 293.838 1460.25H294.093ZM289.543 1464.75C232.846 1744.66 362.242 1788.01 578.548 1561.38C794.854 1334.75 1016.22 924.207 1072.92 644.237C1129.62 364.268 1000.22 320.973 783.863 547.604C567.505 774.235 346.24 1184.78 289.543 1464.75Z" stroke="url(#paint1_linear_303_423)" stroke-width="0.2"/>
<path d="M261.578 1447.09C285.943 1363.4 316.734 1282.27 353.602 1204.64C395.212 1115.94 441.495 1030.14 492.2 947.701C543.336 863.699 598.763 783.131 658.2 706.408C712.059 636.183 770.707 570.83 833.607 510.949C890.303 457.899 941.274 420.897 985.088 400.808C1027.47 381.412 1061.42 378.642 1086.06 392.496C1110.7 406.35 1124.71 436.136 1127.78 481.047C1130.94 527.574 1122.15 588.359 1101.65 661.728C1077.31 745.424 1046.51 826.55 1009.63 904.176C968.216 992.83 922.121 1078.59 871.592 1161C820.439 1244.99 765.012 1325.55 705.592 1402.29C651.733 1472.52 593.084 1537.87 530.185 1597.75C473.488 1650.8 422.517 1687.8 378.653 1707.89C336.322 1727.29 302.376 1730.06 277.734 1716.2C253.092 1702.35 239.084 1672.56 236.016 1627.65C232.847 1581.13 241.64 1520.34 262.141 1446.97L261.578 1447.09ZM257.488 1451.3C172.673 1754.76 294.042 1823 528.447 1603.81C762.851 1384.63 1021.23 960.978 1106.05 657.572C1190.86 354.166 1069.49 285.876 835.089 505.061C600.685 724.245 341.69 1148.01 257.028 1451.42L257.488 1451.3Z" stroke="url(#paint2_linear_303_423)" stroke-width="0.2"/>
<path d="M231.467 1427.4C263.693 1338.66 302.248 1253.02 346.752 1171.33C445.871 987.692 562.871 817.149 695.572 662.883C754.703 593.56 818.678 529.721 886.878 471.984C947.665 421.647 1001.19 388.166 1045.98 372.581C1089.28 357.514 1122.66 359.65 1145.11 378.93C1167.55 398.211 1178.08 433.597 1176.29 484.164C1174.5 536.521 1159.52 602.964 1131.81 681.586C1099.59 770.326 1061.03 855.964 1016.53 937.657C967.178 1029.45 913.186 1117.95 854.823 1202.73C796.631 1287.84 734.157 1369.09 667.709 1446.1C608.561 1515.43 544.568 1579.27 476.351 1637C415.616 1687.34 362.089 1720.82 317.253 1736.41C274.002 1751.47 240.567 1749.34 218.174 1730.06C195.782 1710.78 185.199 1675.39 186.937 1624.82C188.778 1572.47 203.757 1506.02 231.467 1427.4V1427.4ZM226.354 1431.5C111.734 1756.78 222.571 1851.69 473.948 1643.47C725.326 1435.25 1022 1002.71 1136.62 677.488C1251.24 352.261 1140.4 257.302 889.025 465.519C637.648 673.735 340.974 1106.22 226.354 1431.5V1431.5Z" stroke="url(#paint3_linear_303_423)" stroke-width="0.2"/>
<path d="M203.961 1400.73C244.29 1307.64 290.846 1218.16 343.224 1133.06C400.501 1038.99 462.407 948.621 528.651 862.382C593.721 777.104 663.11 696.152 736.471 619.935C808.965 544.891 878.391 483.356 942.859 436.598C1007.33 389.84 1062.95 360.804 1108.19 350.356C1151.91 340.254 1184.11 347.758 1203.95 372.696C1223.79 397.633 1230.28 438.791 1223.22 494.901C1215.86 553.031 1194.29 624.784 1158.96 708.486C1118.67 801.6 1072.11 891.088 1019.7 976.16C962.455 1070.24 900.565 1160.61 834.322 1246.84C769.253 1332.11 699.863 1413.07 626.503 1489.28C554.009 1564.33 484.582 1625.86 420.114 1672.62C355.647 1719.38 300.024 1748.41 254.779 1758.86C211.068 1768.96 178.86 1761.46 159.023 1736.52C139.187 1711.58 132.694 1670.43 139.75 1614.32C147.06 1556.19 168.686 1484.43 203.961 1400.73V1400.73ZM198.849 1404.6C52.8896 1749.63 150.741 1872.58 417.354 1679.26C683.966 1485.94 1018.32 1049.41 1164.28 704.387C1310.24 359.361 1212.39 236.405 945.773 429.728C679.16 623.052 344.655 1059.57 198.696 1404.6H198.849Z" stroke="url(#paint4_linear_303_423)" stroke-width="0.2"/>
<path d="M180.342 1366.85C228.912 1270.1 283.675 1177.5 344.195 1089.76C409.33 994.417 479.121 903.242 553.242 816.664C624.926 732.208 700.96 652.601 780.949 578.257C859.424 505.926 933.554 447.854 1001.19 405.657C1068.83 363.459 1126.14 339.907 1171.23 335.174C1214.79 330.671 1245.36 344.064 1262.03 374.947C1278.69 405.83 1280.64 452.703 1267.86 514.181C1254.56 577.68 1225.93 654.57 1182.78 742.14C1134.2 838.87 1079.43 931.476 1018.93 1019.22C953.766 1114.54 883.977 1205.72 809.885 1292.32C738.146 1376.8 662.043 1456.41 581.973 1530.73C503.549 1603.06 429.419 1661.13 361.731 1703.33C294.042 1745.53 236.885 1769.2 191.743 1773.93C148.185 1778.43 117.613 1765.04 100.946 1734.16C84.2798 1703.27 82.286 1656.4 95.1181 1594.92C108.41 1531.42 137.04 1454.53 180.189 1366.96L180.342 1366.85ZM174.616 1370.43C-3.70489 1732.77 78.0938 1884.76 358.203 1710.37C638.312 1535.98 1009.78 1100.96 1188.31 738.676C1366.83 376.39 1284.62 224.225 1004.77 398.614C724.917 573.004 353.193 1008.02 174.616 1370.31V1370.43Z" stroke="url(#paint5_linear_303_423)" stroke-width="0.2"/>
<path d="M160.659 1325.29C217.54 1225.83 280.598 1131.06 349.359 1041.68C422.251 946.09 499.825 855.184 581.718 769.387C659.787 686.939 742.251 609.962 828.648 538.888C912.696 470.31 990.916 417.029 1061.26 380.489C1131.61 343.948 1189.74 326.284 1234.16 328.016C1277.06 329.748 1305.33 349.375 1318.31 386.435C1331.3 423.494 1328.23 475.967 1309.21 542.582C1289.58 611.853 1253.59 692.669 1202.31 783.703C1145.45 883.154 1082.41 977.928 1013.67 1067.31C940.805 1162.91 863.247 1253.82 781.358 1339.6C703.282 1422.06 620.8 1499.04 534.377 1570.1C450.38 1638.68 372.109 1691.96 301.813 1728.5C231.518 1765.04 173.338 1782.7 128.911 1780.97C86.0182 1779.24 57.6954 1759.61 44.761 1722.55C31.8266 1685.49 34.8429 1633.02 53.8611 1566.41C73.4927 1497.42 109.484 1416.32 160.762 1325.29H160.659ZM154.985 1328.29C-57.0784 1704.66 6.72459 1887.19 297.621 1735.95C588.518 1584.7 996.028 1157.07 1207.94 780.701C1419.85 404.33 1356.2 221.801 1065.3 373.042C774.405 524.283 366.945 951.915 154.78 1328.29H154.985Z" stroke="url(#paint6_linear_303_423)" stroke-width="0.2"/>
<path d="M145.987 1275.99C211.2 1174.77 282.607 1078.82 359.686 988.86C440.071 894.21 525.178 804.821 614.591 721.128C698.568 641.834 786.974 568.718 879.26 502.232C968.268 438.734 1050.07 391.457 1122.36 361.555C1194.65 331.653 1253.13 321.147 1296.18 329.806C1337.74 338.291 1363.2 364.441 1371.89 407.908C1380.58 451.376 1371.89 509.332 1346.33 580.681C1319.9 654.57 1276.34 739.485 1216.83 833C1151.7 934.197 1080.4 1030.14 1003.44 1120.13C923.043 1214.76 837.937 1304.15 748.536 1387.86C664.558 1467.15 576.153 1540.27 483.866 1606.76C394.859 1670.25 313.06 1717.53 240.771 1747.43C168.481 1777.33 109.995 1787.84 66.9487 1779.18C25.3847 1770.7 -0.126213 1744.55 -8.81732 1701.08C-17.5084 1657.61 -8.81732 1599.65 16.7448 1528.31C43.176 1454.42 86.7337 1369.5 146.242 1275.99H145.987ZM140.312 1278.41C-105.851 1665.17 -63.0089 1878.76 235.965 1755.11C534.939 1631.46 976.959 1217.51 1223.17 830.576C1469.39 443.641 1426.49 230.229 1127.47 353.877C828.443 477.526 386.27 891.476 140.056 1278.41H140.312Z" stroke="url(#paint7_linear_303_423)" stroke-width="0.2"/>
<path d="M136.989 1219.01C210.389 1117.12 290.013 1021.16 375.279 931.827C462.82 839.382 555.106 752.836 651.656 672.638C741.015 597.669 834.808 529.682 932.379 469.155C1025.68 412.18 1110.29 372.061 1183.81 349.894C1257.32 327.727 1315.3 324.841 1356.2 341.582C1395.72 357.572 1417.55 390.764 1421.59 440.408C1425.62 490.052 1411 553.55 1378.64 629.229C1345.1 707.505 1293.72 795.421 1225.88 890.553C1152.48 992.44 1072.86 1088.4 987.593 1177.74C900.04 1270.17 807.756 1356.71 711.216 1436.93C621.956 1511.68 528.284 1579.47 430.851 1639.83C337.498 1696.81 252.939 1736.93 179.422 1759.09C105.906 1781.26 47.4195 1784.15 6.52012 1767.69C-32.9989 1751.7 -54.8289 1718.51 -58.9188 1668.87C-63.0087 1619.22 -48.285 1555.73 -15.9234 1480.05C17.7674 1401.77 69.1472 1313.86 136.989 1219.01ZM130.956 1220.8C-149.562 1614.26 -130.442 1858.9 173.594 1767.23C477.629 1675.56 951.499 1282.34 1231.86 888.763C1512.23 495.19 1493.26 250.664 1189.23 342.332C885.191 434 411.27 827.228 130.956 1220.8V1220.8Z" stroke="url(#paint8_linear_303_423)" stroke-width="0.2"/>
<path d="M134.33 1153.44C215.723 1052.07 303.383 957.357 396.648 870.002C490.88 781.067 589.911 698.823 693.168 623.745C787.162 554.533 885.573 493.292 987.592 440.523C1084.42 391.399 1170.97 359.707 1244.85 346.373C1318.72 333.038 1375.47 338.753 1413.56 363.69C1450.37 387.589 1468.26 428.055 1466.78 484.048C1465.3 540.042 1444.54 608.563 1404.97 687.936C1364.07 770.079 1304.77 860.189 1228.69 955.783C1147.32 1057.15 1059.68 1151.86 966.427 1239.22C872.186 1328.14 773.156 1410.38 669.907 1485.47C575.831 1554.7 477.334 1615.94 375.227 1668.69C278.398 1717.82 191.845 1749.51 117.971 1762.85C44.0962 1776.18 -12.7028 1770.47 -50.7392 1745.53C-87.4974 1721.63 -105.391 1681.16 -103.908 1625.17C-102.426 1569.18 -81.567 1500.66 -42.048 1421.05C-1.14872 1338.91 58.2064 1248.8 134.228 1153.2L134.33 1153.44ZM128.195 1154.3C-186.372 1549.72 -193.887 1825.48 111.887 1770.23C417.66 1714.99 920.211 1349.65 1234.78 954.224C1549.34 558.803 1556.86 283.048 1251.09 338.291C945.313 393.535 442.762 759.111 128.195 1154.53V1154.3Z" stroke="url(#paint9_linear_303_423)" stroke-width="0.2"/>
<path d="M138.523 1080.47C227.513 980.891 322.842 888.803 423.745 804.946C523.973 720.92 629.006 644.46 738.158 576.064C836.231 513.782 938.63 460.615 1044.34 417.087C1143.78 377.256 1231.35 355.321 1304.66 351.857C1377.98 348.393 1432.48 363.402 1467.04 397.056C1500.32 429.383 1513.46 477.295 1506.09 539.465C1498.73 601.636 1471.23 674.89 1424.3 757.264C1375.78 842.583 1308.5 933.905 1224.4 1028.58C1135.39 1128.13 1040.06 1220.21 939.178 1304.1C838.942 1388.11 733.91 1464.57 624.765 1532.98C526.689 1595.19 424.29 1648.28 318.582 1691.73C219.197 1731.56 131.621 1753.49 58.309 1756.96C-15.003 1760.42 -69.5014 1745.41 -104.061 1711.76C-137.343 1679.43 -150.482 1631.52 -143.12 1569.35C-135.758 1507.18 -108.253 1433.92 -61.3215 1351.55C-12.8047 1266.23 54.4236 1174.91 138.574 1080.24L138.523 1080.47ZM132.541 1080.24C-215.461 1473.01 -251.759 1779.3 51.4584 1764.92C354.676 1750.55 882.482 1421.05 1230.48 1028.52C1578.49 635.983 1614.73 330.037 1311.52 344.122C1008.3 358.207 480.441 687.936 132.49 1080.47L132.541 1080.24Z" stroke="url(#paint10_linear_303_423)" stroke-width="0.2"/>
<path d="M150.383 999.25C246.55 902.838 349.096 814.858 457.128 736.079C562.705 658.429 673.056 589.386 787.339 529.479C898.637 471.407 1004.51 427.766 1102.06 399.769C1202.98 370.906 1290.55 359.765 1362.23 367.27C1433.91 374.774 1485.49 400.115 1515.6 442.775C1544.59 483.933 1552.31 539.408 1538.56 607.582C1524.81 675.756 1490.3 753.281 1436 837.907C1379.77 925.477 1304.66 1016.86 1212.74 1109.74C1116.59 1206.16 1014.04 1294.14 905.999 1372.91C800.446 1450.57 690.111 1519.61 575.839 1579.51C464.541 1637.58 358.663 1681.22 261.118 1709.22C160.148 1738.08 72.6236 1749.22 0.896431 1741.72C-70.8308 1734.21 -122.313 1708.87 -152.476 1666.21C-181.412 1625.05 -189.132 1569.58 -175.38 1501.41C-161.627 1433.23 -127.118 1355.71 -72.8246 1271.08C-16.588 1183.51 58.5134 1092.13 150.383 999.25V999.25ZM144.555 998.615C-235.604 1382.38 -303.343 1718.51 -6.77219 1749.34C289.799 1780.16 838.31 1494.13 1218.42 1110.37C1598.53 726.612 1666.32 390.475 1369.75 359.938C1073.17 329.402 524.612 614.855 144.555 998.615Z" stroke="url(#paint11_linear_303_423)" stroke-width="0.2"/>
<path d="M170.527 910.757C372.774 730.663 598.573 587.139 839.844 485.318C954.26 437.81 1061.93 405.484 1159.78 389.321C1261.11 372.58 1347.46 373.908 1416.42 393.304C1485.39 412.699 1532.88 449.009 1557.58 501.193C1581.35 551.645 1583.14 614.682 1562.43 688.57C1541.73 762.459 1500.06 843.622 1438.25 929.575C1374.3 1018.59 1291.53 1108.93 1192.24 1198.23C1089.61 1290.03 980.545 1372.27 866.122 1444.14C756.036 1514.02 641.268 1574.04 522.874 1623.67C408.407 1671.18 300.791 1703.5 202.888 1719.67C101.611 1736.41 15.2625 1735.08 -53.7551 1715.68C-122.773 1696.29 -170.165 1659.98 -194.858 1607.79C-218.682 1557.34 -220.42 1494.31 -199.715 1420.42C-179.009 1346.53 -137.241 1265.19 -75.2784 1179.41C-11.3221 1090.4 71.448 1000.06 170.68 910.757H170.527ZM165.056 909.198C-245.471 1278.64 -346.952 1642.72 -61.6282 1723.13C223.696 1803.54 787.749 1569.12 1198.22 1199.9C1608.7 830.691 1710.18 466.384 1424.91 385.972C1139.64 305.561 575.379 539.985 165.005 909.198H165.056Z" stroke="url(#paint12_linear_303_423)" stroke-width="0.2"/>
<path d="M199.514 815.221C308.014 729.368 422.972 654.423 543.068 591.245C656.633 530.733 774.668 481.556 895.825 444.276C1012.18 408.948 1120.36 389.552 1217.29 386.55C1317.65 383.548 1401.34 398.095 1466.63 430.653C1531.91 463.21 1573.99 510.776 1592.49 572.831C1610.34 632.75 1605.27 703.291 1577.41 782.548C1549.55 861.806 1500.32 945.739 1431.09 1032.1C1359.52 1121.46 1269.34 1209.43 1163.31 1293.65C1054.79 1379.48 939.836 1454.42 819.752 1517.63C706.184 1578.13 588.149 1627.31 466.995 1664.6C350.637 1699.92 242.458 1719.32 145.527 1722.32C45.1187 1725.32 -38.5204 1710.49 -103.806 1678.22C-169.091 1645.95 -211.167 1598.1 -229.725 1536.04C-247.567 1476.12 -242.455 1405.58 -214.387 1326.32C-186.32 1247.07 -137.343 1163.13 -68.0701 1076.78C3.50368 987.417 93.6867 899.443 199.718 815.221H199.514ZM194.606 812.566C-243.886 1160.82 -381.206 1551.45 -112.139 1685.09C156.927 1818.72 730.643 1644.68 1169.13 1296.42C1607.63 948.163 1744.95 557.534 1475.88 423.899C1206.81 290.264 633.098 464.307 194.555 812.566H194.606Z" stroke="url(#paint13_linear_303_423)" stroke-width="0.2"/>
<path d="M237.805 713.104C351.269 634.828 471.104 568.991 595.675 516.49C711.863 466.724 832.107 429.987 954.668 406.812C1071.64 385.453 1178.95 380.546 1273.58 392.265C1371.53 404.733 1451.75 434.231 1511.61 480.123C1571.48 526.015 1607.68 586.108 1618.98 658.091C1630.02 727.362 1617.6 805.581 1582.12 889.687C1546.64 973.793 1490.09 1059.75 1413.41 1145.35C1334.21 1233.91 1237.23 1318.13 1125.17 1395.65C1011.7 1473.93 891.869 1539.77 767.298 1592.27C651.098 1641.93 530.855 1678.57 408.305 1701.66C291.332 1723.01 184.023 1727.92 89.3409 1716.2C-8.81745 1704.25 -88.7756 1675.04 -148.693 1628.86C-208.611 1582.68 -244.704 1522.88 -256.054 1450.9C-267.046 1381.63 -254.673 1303.41 -219.142 1219.3C-183.611 1135.19 -126.863 1049.24 -50.4325 963.633C28.81 875.082 125.792 790.861 237.857 713.335L237.805 713.104ZM232.744 709.583C-230.696 1029.96 -405.643 1444.14 -157.895 1634.98C89.8522 1825.82 666.533 1720.24 1130.08 1399.64C1593.62 1079.03 1768.57 664.845 1520.82 474.004C1273.07 283.163 696.696 388.743 232.898 709.352L232.744 709.583Z" stroke="url(#paint14_linear_303_423)" stroke-width="0.2"/>
<path d="M285.862 605.215C403.431 535.949 527.18 480.975 655.03 441.216C772.75 403.923 893.8 381.637 1015.92 374.774C1132.02 369.001 1236.92 380.142 1327.77 407.908C1421.84 436.771 1496.48 481.855 1550.06 542.524C1603.64 603.194 1632.32 675.294 1635.8 757.668C1639.17 836.925 1618.82 921.898 1575.37 1010.22C1531.91 1098.54 1467.6 1185.65 1384.11 1269.23C1297.66 1355.82 1194.34 1434.67 1077.37 1503.77C959.798 1573.04 836.049 1628.01 708.199 1667.77C590.478 1705.06 469.428 1727.35 347.313 1734.21C231.211 1739.99 126.253 1728.85 35.4561 1701.08C-58.6123 1672.22 -133.254 1627.13 -186.781 1566.46C-240.308 1505.79 -269.551 1433.4 -272.823 1351.32C-276.197 1272.06 -255.849 1187.09 -212.445 1098.77C-169.041 1010.45 -104.624 923.341 -21.1383 839.754C65.3126 753.166 168.583 674.312 285.862 605.215V605.215ZM281.466 600.192C-203.549 886.108 -417.811 1321.24 -196.699 1572.12C24.4133 1823 596.493 1794.65 1081.41 1508.62C1566.32 1222.59 1780.53 787.743 1559.67 536.867C1338.82 285.992 766.48 314.335 281.568 600.366L281.466 600.192Z" stroke="url(#paint15_linear_303_423)" stroke-width="0.2"/>
<path d="M343.939 492.246C464.592 433.565 591.011 391.339 720.52 366.461C838.743 343.073 959.137 336.923 1078.75 348.162C1192.29 359.708 1293.47 388.57 1378.74 433.308C1467.19 479.835 1535.18 541.948 1580.74 618.03C1625.86 692.165 1647.26 781.446 1641.42 871.157C1636.31 960.112 1607.52 1051.72 1555.94 1143.45C1504.36 1235.18 1432.48 1322.4 1342.34 1402.75C1249.09 1485.94 1140.2 1557.98 1018.83 1616.92C898.174 1675.59 771.756 1717.81 642.249 1742.7C524.026 1766.09 403.632 1772.24 284.022 1761C170.424 1749.45 69.3005 1720.59 -15.9746 1675.85C-104.471 1629.33 -172.415 1567.21 -217.966 1491.13C-263.073 1416.99 -284.443 1327.7 -278.548 1238C-273.436 1149.05 -244.653 1057.38 -192.864 965.712C-141.075 874.043 -69.3994 786.762 20.6814 706.408C119.693 619.394 228.369 547.394 343.939 492.246V492.246ZM340.31 485.896C-161.883 729.845 -416.277 1182.01 -227.833 1496.1C-39.3895 1810.18 520.42 1866.93 1022.66 1623.09C1524.91 1379.26 1779.3 927.093 1590.81 612.892C1402.31 298.691 842.502 242.178 340.31 485.896Z" stroke="url(#paint16_linear_303_423)" stroke-width="0.2"/>
<path d="M412.65 375.293C535.362 328.667 663.112 301.073 792.4 293.265C910.106 285.46 1028.19 297.247 1142.86 328.247C1252.16 358.668 1347.35 406.177 1425.78 469.559C1506.96 535.136 1566.52 614.913 1602.82 706.581C1639.08 798.007 1650.31 899.582 1635.08 998.269C1620.71 1096.69 1583.04 1194.54 1523.07 1288.74C1463.1 1382.95 1384.01 1469.25 1287.9 1544.87C1183.96 1625.64 1070.34 1689.23 950.476 1733.69C827.765 1780.32 700.014 1807.91 570.726 1815.72C453.003 1823.52 334.904 1811.74 220.219 1780.74C110.915 1750.32 15.7223 1702.81 -62.6511 1639.43C-143.99 1573.85 -203.6 1494.07 -239.899 1402.41C-276.159 1310.98 -287.375 1209.4 -272.107 1110.72C-257.741 1012.3 -220.062 914.451 -160.145 820.243C-100.227 726.035 -21.036 639.735 75.0263 564.114C178.953 483.335 292.576 419.751 412.446 375.293H412.65ZM409.429 367.789C-104.829 562.036 -400.224 1027.02 -250.072 1406.27C-99.9206 1785.53 438.826 1935.5 953.288 1741.08C1467.75 1546.66 1763.2 1081.86 1613.05 702.598C1462.89 323.34 924.147 173.369 409.634 367.789H409.429Z" stroke="url(#paint17_linear_303_423)" stroke-width="0.2"/>
<path d="M491.739 255.455C615.585 222.501 743.209 211.44 870.058 222.667C986.326 232.439 1100.35 263.944 1207.48 315.894C1310.59 366.692 1398.22 434.462 1467.8 517.241C1537.82 598.996 1588.4 699.414 1614.83 809.16C1640.47 917.335 1640.64 1031.19 1615.35 1139.47C1590.96 1247.01 1543.77 1350.16 1475.62 1446.1C1407.48 1542.04 1321.23 1625.92 1219.65 1695.36C1111.63 1768.57 994.04 1822.03 871.234 1853.76C747.388 1886.72 619.764 1897.78 492.915 1886.55C376.647 1876.78 262.623 1845.27 155.496 1793.32C52.3783 1742.53 -35.2484 1674.76 -104.828 1591.98C-176.76 1506.08 -226.299 1407.89 -251.913 1299.83C-277.517 1191.65 -277.693 1077.8 -252.424 969.522C-227.987 861.979 -180.85 758.823 -112.702 662.883C-44.553 566.943 41.7445 483.298 143.328 413.854C251.339 340.636 368.93 287.175 491.739 255.455V255.455ZM489.643 246.623C-31.5675 383.721 -368.169 856.552 -262.24 1302.77C-156.31 1748.99 352.119 1999.46 873.33 1862.36C1394.54 1725.27 1731.14 1252.44 1625.21 805.985C1519.28 359.534 1010.85 109.524 489.643 246.623V246.623Z" stroke="url(#paint18_linear_303_423)" stroke-width="0.2"/>
<path d="M581.411 134.058C705.407 116.444 831.188 123.872 952.88 155.994C1066.56 185.572 1174.49 238.396 1271.33 311.853C1363.72 381.508 1442.64 471.584 1503.33 576.641C1563.79 681.539 1602.22 800.642 1615.7 924.863C1629.19 1049.08 1617.37 1175.14 1581.14 1293.42C1544.78 1411.96 1487.49 1520.93 1412.74 1613.74C1334.58 1711.55 1241.2 1792.36 1137.23 1852.15C912.825 1981.2 655.336 2016.9 409.941 1952.99C296.273 1923.42 188.36 1870.59 91.5398 1797.13C-0.845116 1727.48 -79.7677 1637.4 -140.462 1532.35C-200.939 1427.46 -239.4 1308.37 -252.912 1184.15C-266.423 1059.92 -254.628 933.859 -218.426 815.567C-181.967 697.003 -124.571 588.029 -49.7162 495.248C28.4437 397.434 121.823 316.629 225.792 256.841C337.001 192.428 457.466 150.854 581.565 134.058H581.411ZM580.44 123.898C58.9737 196.171 -318.834 671.484 -263.108 1185.47C-207.383 1699.46 261.016 2057.42 782.687 1985.09C1304.36 1912.76 1681.96 1437.5 1626.24 923.514C1570.51 409.525 1101.96 51.568 580.287 123.898H580.44Z" stroke="url(#paint19_linear_303_423)" stroke-width="0.2"/>
<path d="M681.359 12.5451C894.251 12.6977 1100.55 95.9381 1265.31 248.166C1430.08 400.394 1543.17 612.249 1585.44 847.846C1627.71 1083.44 1596.56 1328.29 1497.26 1540.92C1397.95 1753.56 1236.61 1920.89 1040.56 2014.59C815.412 2119.86 562.532 2120.34 337.077 2015.91C111.622 1911.49 -68.1138 1710.63 -162.925 1457.16C-257.737 1203.68 -259.93 918.16 -169.028 662.867C-78.1254 407.574 98.4971 203.228 322.314 94.4002C435.903 40.1305 558.02 12.2902 681.359 12.5451V12.5451ZM681.359 1C496.825 1 316.436 62.7863 163.003 178.546C9.56906 294.305 -110.018 458.838 -180.636 651.339C-251.253 843.84 -269.73 1055.66 -233.73 1260.02C-197.729 1464.38 -108.868 1652.09 21.6167 1799.43C152.101 1946.76 318.349 2047.1 499.336 2087.75C680.324 2128.39 867.922 2107.53 1038.41 2027.8C1208.89 1948.06 1354.61 1813.03 1457.13 1639.78C1559.65 1466.54 1614.37 1262.86 1614.37 1054.49C1614.37 916.147 1590.24 779.155 1543.35 651.339C1496.46 523.523 1427.74 407.387 1341.1 309.561C1254.46 211.735 1151.61 134.135 1038.41 81.1924C925.21 28.2494 803.884 1 681.359 1V1Z" stroke="url(#paint20_linear_303_423)" stroke-width="0.2"/>
</g>
<defs>
<linearGradient id="paint0_linear_303_423" x1="681.438" y1="431.746" x2="681.438" y2="1677.24" gradientUnits="userSpaceOnUse">
<stop stop-color="#4A3AFF"/>
<stop offset="0.495" stop-color="white"/>
<stop offset="1" stop-color="#2C2399"/>
</linearGradient>
<linearGradient id="paint1_linear_303_423" x1="681.231" y1="402.333" x2="681.231" y2="1706.64" gradientUnits="userSpaceOnUse">
<stop stop-color="#4A3AFF"/>
<stop offset="0.495" stop-color="white"/>
<stop offset="1" stop-color="#2C2399"/>
</linearGradient>
<linearGradient id="paint2_linear_303_423" x1="681.768" y1="376.66" x2="681.768" y2="1732.23" gradientUnits="userSpaceOnUse">
<stop stop-color="#4A3AFF"/>
<stop offset="0.495" stop-color="white"/>
<stop offset="1" stop-color="#2C2399"/>
</linearGradient>
<linearGradient id="paint3_linear_303_423" x1="681.487" y1="355.117" x2="681.487" y2="1753.89" gradientUnits="userSpaceOnUse">
<stop stop-color="#4A3AFF"/>
<stop offset="0.495" stop-color="white"/>
<stop offset="1" stop-color="#2C2399"/>
</linearGradient>
<linearGradient id="paint4_linear_303_423" x1="681.563" y1="338.211" x2="681.563" y2="1770.78" gradientUnits="userSpaceOnUse">
<stop stop-color="#4A3AFF"/>
<stop offset="0.495" stop-color="white"/>
<stop offset="1" stop-color="#2C2399"/>
</linearGradient>
<linearGradient id="paint5_linear_303_423" x1="681.482" y1="326.376" x2="681.482" y2="1782.64" gradientUnits="userSpaceOnUse">
<stop stop-color="#4A3AFF"/>
<stop offset="0.495" stop-color="white"/>
<stop offset="1" stop-color="#2C2399"/>
</linearGradient>
<linearGradient id="paint6_linear_303_423" x1="681.428" y1="319.887" x2="681.428" y2="1789.1" gradientUnits="userSpaceOnUse">
<stop stop-color="#4A3AFF"/>
<stop offset="0.495" stop-color="white"/>
<stop offset="1" stop-color="#2C2399"/>
</linearGradient>
<linearGradient id="paint7_linear_303_423" x1="681.751" y1="318.774" x2="681.751" y2="1790.2" gradientUnits="userSpaceOnUse">
<stop stop-color="#4A3AFF"/>
<stop offset="0.495" stop-color="white"/>
<stop offset="1" stop-color="#2C2399"/>
</linearGradient>
<linearGradient id="paint8_linear_303_423" x1="681.38" y1="323.083" x2="681.38" y2="1786.48" gradientUnits="userSpaceOnUse">
<stop stop-color="#4A3AFF"/>
<stop offset="0.495" stop-color="white"/>
<stop offset="1" stop-color="#2C2399"/>
</linearGradient>
<linearGradient id="paint9_linear_303_423" x1="681.487" y1="331.248" x2="681.487" y2="1777.28" gradientUnits="userSpaceOnUse">
<stop stop-color="#4A3AFF"/>
<stop offset="0.495" stop-color="white"/>
<stop offset="1" stop-color="#2C2399"/>
</linearGradient>
<linearGradient id="paint10_linear_303_423" x1="681.498" y1="343.654" x2="681.498" y2="1765.41" gradientUnits="userSpaceOnUse">
<stop stop-color="#4A3AFF"/>
<stop offset="0.495" stop-color="white"/>
<stop offset="1" stop-color="#2C2399"/>
</linearGradient>
<linearGradient id="paint11_linear_303_423" x1="681.479" y1="357.7" x2="681.479" y2="1751.61" gradientUnits="userSpaceOnUse">
<stop stop-color="#4A3AFF"/>
<stop offset="0.495" stop-color="white"/>
<stop offset="1" stop-color="#2C2399"/>
</linearGradient>
<linearGradient id="paint12_linear_303_423" x1="681.622" y1="370.172" x2="681.622" y2="1738.93" gradientUnits="userSpaceOnUse">
<stop stop-color="#4A3AFF"/>
<stop offset="0.495" stop-color="white"/>
<stop offset="1" stop-color="#2C2399"/>
</linearGradient>
<linearGradient id="paint13_linear_303_423" x1="681.87" y1="378.893" x2="681.87" y2="1730.09" gradientUnits="userSpaceOnUse">
<stop stop-color="#4A3AFF"/>
<stop offset="0.495" stop-color="white"/>
<stop offset="1" stop-color="#2C2399"/>
</linearGradient>
<linearGradient id="paint14_linear_303_423" x1="681.46" y1="378.941" x2="681.46" y2="1730.05" gradientUnits="userSpaceOnUse">
<stop stop-color="#4A3AFF"/>
<stop offset="0.495" stop-color="white"/>
<stop offset="1" stop-color="#2C2399"/>
</linearGradient>
<linearGradient id="paint15_linear_303_423" x1="681.414" y1="365.805" x2="681.414" y2="1743.18" gradientUnits="userSpaceOnUse">
<stop stop-color="#4A3AFF"/>
<stop offset="0.495" stop-color="white"/>
<stop offset="1" stop-color="#2C2399"/>
</linearGradient>
<linearGradient id="paint16_linear_303_423" x1="681.5" y1="334.539" x2="681.5" y2="1774.46" gradientUnits="userSpaceOnUse">
<stop stop-color="#4A3AFF"/>
<stop offset="0.495" stop-color="white"/>
<stop offset="1" stop-color="#2C2399"/>
</linearGradient>
<linearGradient id="paint17_linear_303_423" x1="681.484" y1="282.68" x2="681.484" y2="1826.19" gradientUnits="userSpaceOnUse">
<stop stop-color="#4A3AFF"/>
<stop offset="0.495" stop-color="white"/>
<stop offset="1" stop-color="#2C2399"/>
</linearGradient>
<linearGradient id="paint18_linear_303_423" x1="681.487" y1="209.072" x2="681.487" y2="1899.88" gradientUnits="userSpaceOnUse">
<stop stop-color="#4A3AFF"/>
<stop offset="0.495" stop-color="white"/>
<stop offset="1" stop-color="#2C2399"/>
</linearGradient>
<linearGradient id="paint19_linear_303_423" x1="681.565" y1="114.61" x2="681.565" y2="1994.38" gradientUnits="userSpaceOnUse">
<stop stop-color="#4A3AFF"/>
<stop offset="0.495" stop-color="white"/>
<stop offset="1" stop-color="#2C2399"/>
</linearGradient>
<linearGradient id="paint20_linear_303_423" x1="681.358" y1="1" x2="681.358" y2="2107.99" gradientUnits="userSpaceOnUse">
<stop stop-color="#4A3AFF"/>
<stop offset="0.495" stop-color="white"/>
<stop offset="1" stop-color="#2C2399"/>
</linearGradient>
</defs>
</svg>
