<svg width="43" height="43" viewBox="0 0 43 43" fill="none" xmlns="http://www.w3.org/2000/svg">
<g clip-path="url(#clip0_561_378)">
<path d="M7.54166 31.5706L9.98303 2.95435L37.5843 7.80595L30.1183 35.5344L18.2645 36.6813L7.54166 31.5706Z" fill="#1572B6"/>
<path d="M18.7023 34.2893L28.2815 33.3625L34.6617 9.66733L23.3788 7.68408L18.7023 34.2893Z" fill="#33A9DC"/>
<path d="M21.5843 17.8915L26.157 18.6952L27.0942 15.2121L22.2063 14.353L22.8137 10.8972L31.4783 12.4202L31.2326 13.3325L28.7101 22.7065L20.9769 21.3472L21.5843 17.8915Z" fill="white"/>
<path d="M20.0283 26.8694L20.0119 26.8712L16.3464 25.155L16.5849 22.3559L13.1157 21.7461L12.6461 27.2569L19.3787 30.4665L19.3963 30.4649L20.0283 26.8694Z" fill="#EBEBEB"/>
<path d="M25.2815 21.9529L24.0522 26.5072L20.0157 26.8696L19.3837 30.4651L26.8125 29.747L26.9676 29.1726L28.7484 22.5623L25.2815 21.9529Z" fill="white"/>
<path d="M22.826 10.8993L22.2186 14.3551L13.8716 12.8879L13.9388 12.0987L14.0891 10.3191L14.1693 9.37769L22.826 10.8993ZM21.5843 17.8914L20.9769 21.3471L17.1768 20.6792L17.244 19.89L17.3955 18.1106L17.4757 17.1692L21.5843 17.8914Z" fill="#EBEBEB"/>
</g>
<defs>
<clipPath id="clip0_561_378">
<rect width="36.3246" height="36.3246" fill="white" transform="translate(6.28857) rotate(9.96929)"/>
</clipPath>
</defs>
</svg>
