<svg width="58" height="58" viewBox="0 0 58 58" fill="none" xmlns="http://www.w3.org/2000/svg">
<g clip-path="url(#clip0_561_385)">
<path d="M10.3568 43.1756L14.0082 4.07983L51.6926 11.0173L41.1786 48.8434L24.96 50.2809L10.3568 43.1756Z" fill="#E44F26"/>
<path d="M25.5846 47.0158L38.6909 45.8544L47.6746 13.53L32.2711 10.6943L25.5846 47.0158Z" fill="#F1662A"/>
<path d="M29.6451 24.9588L23.4025 23.8096L23.8614 18.8996L30.5344 20.1281L31.403 15.4103L19.5741 13.2327L19.4538 14.5203L18.2192 27.7331L28.7766 29.6766L29.6451 24.9588ZM27.3897 37.2105L27.3672 37.2127L22.3747 34.8276L22.7315 31.0034L17.9954 30.1315L17.293 37.6588L26.4636 42.1213L26.4861 42.1191L27.3897 37.2105Z" fill="#EBEBEB"/>
<path d="M29.6284 24.956L28.7599 29.6738L34.569 30.7433L32.8961 36.7616L27.3721 37.2123L26.4685 42.1209L36.6344 41.2197L36.8512 40.4359L40.2457 28.2204L40.5949 26.9749L29.6284 24.956ZM31.3862 15.4075L30.5177 20.1253L41.9131 22.2231L42.2027 21.1813L42.8582 18.8292L43.2044 17.5831L31.3862 15.4075Z" fill="white"/>
</g>
<defs>
<clipPath id="clip0_561_385">
<rect width="49.6625" height="49.6625" fill="white" transform="translate(8.99146) rotate(10.431)"/>
</clipPath>
</defs>
</svg>
