<svg width="119" height="111" viewBox="0 0 119 111" fill="none" xmlns="http://www.w3.org/2000/svg">
<path d="M20.2898 12.3961C18.035 27.4119 23.3978 42.0011 34.7937 52.0319C45.5314 61.4777 59.1577 63.4035 72.6865 59.3083C82.8149 56.2368 91.0785 49.8868 93.6745 39.271C96.7216 26.8513 93.4064 13.1396 90.8956 0.939292C90.6762 -0.145451 89.0065 0.317704 89.238 1.40245C93.2845 21.1107 98.9764 47.632 75.2217 56.639C62.2413 61.563 48.0543 60.7708 37.1216 51.776C25.5307 42.2327 19.7169 27.7532 21.9473 12.8593C22.1058 11.7624 20.4482 11.2992 20.2898 12.3961Z" fill="#00477C"/>
<path d="M20.6423 20.2452C14.2191 21.5249 6.30907 23.0241 2.76233 29.24C-0.333459 34.6759 0.653807 41.5744 3.0183 47.0834C4.94403 51.5808 8.28353 56.2733 13.4025 57.2118C20.3863 58.4915 28.2843 54.9082 34.1102 51.3615C35.0609 50.7886 34.1955 49.2895 33.2449 49.8745C29.0399 52.434 24.7376 54.311 19.8501 55.152C11.8669 56.517 7.02816 52.7753 4.20052 45.4502C2.34792 40.6725 1.60449 34.7612 4.24932 30.1297C7.54011 24.3769 15.1577 23.1216 21.0933 21.9271C22.1903 21.6955 21.727 20.038 20.6423 20.2452Z" fill="#00477C"/>
<path d="M57.3411 61.6728C56.7439 64.6955 56.6463 69.7414 59.5837 71.7403C62.9842 74.0438 70.2117 71.8987 73.6366 70.5946C76.9883 69.327 81.1079 67.1453 81.7539 63.2086C82.2292 60.3078 80.6692 57.6873 77.8903 56.8829C76.8177 56.5782 76.3667 58.2358 77.4271 58.5405C83.4359 60.2834 78.329 66.2799 75.6842 67.7913C73.7341 68.9126 71.4427 69.6073 69.261 70.0826C67.4816 70.4727 64.0689 71.338 62.1797 70.6921C58.3892 69.4001 58.3892 65.2196 58.9987 62.1238C59.218 61.0512 57.5605 60.5881 57.3411 61.6728Z" fill="#00477C"/>
<path d="M64.6779 72.0452C66.0064 76.3598 67.0424 80.8206 67.2984 85.3302C67.5909 90.4736 66.4939 100.797 59.8026 102.016C58.7179 102.211 59.1689 103.881 60.2658 103.673C65.7261 102.686 67.9931 96.202 68.7732 91.3146C69.8213 84.7939 68.2612 77.7979 66.3477 71.582C66.0186 70.5216 64.3488 70.9726 64.6779 72.0452Z" fill="#00477C"/>
<path d="M73.2225 70.0099C74.5753 77.2862 77.4396 84.3188 81.8395 90.3031C84.1796 93.4842 87.7751 98.6277 92.236 96.3119C93.2232 95.8 92.3457 94.3131 91.3706 94.825C86.7513 97.2138 80.9131 85.9886 79.4506 83.1365C77.2445 78.8341 75.7698 74.2879 74.8922 69.5589C74.685 68.462 73.0274 68.9252 73.2225 70.0099Z" fill="#00477C"/>
<path d="M53.9404 105.904C64.9341 103.259 75.9887 100.834 87.019 98.3231C89.7248 97.7015 93.0156 96.3608 95.7823 96.2877C97.1839 95.3248 98.2808 95.5076 99.0853 96.824C99.6094 99.2616 99.0365 100.578 97.3911 100.761C95.6848 101.76 92.528 101.809 90.6023 102.187C83.6185 103.588 76.6103 104.88 69.59 106.111C66.5673 106.648 63.5324 107.172 60.4976 107.647C59.4251 107.818 57.5115 108.5 56.4511 108.269C54.4157 107.818 54.9642 107.391 54.5376 104.844C54.3548 103.747 52.6972 104.21 52.88 105.307C53.1238 106.745 53.3797 108.196 53.6235 109.634C53.6844 109.963 54.1111 110.304 54.4523 110.267C64.0688 109.097 73.6242 107.196 83.131 105.392C87.7503 104.515 92.5646 103.869 97.0986 102.601C101.767 101.285 100.913 99.4322 100.706 94.4351C100.682 93.8623 100.17 93.4723 99.6093 93.6063C84.2645 97.2993 68.8221 100.554 53.4772 104.247C52.4047 104.502 52.8556 106.16 53.9404 105.904Z" fill="#00477C"/>
<path d="M19.9356 24.8645C14.5484 26.3637 9.64876 28.1432 7.17457 33.5912C5.51698 37.2477 5.89481 41.087 7.24769 44.7556C11.1113 55.1764 23.458 52.8241 30.844 47.2785C31.7215 46.6204 30.8561 45.1212 29.9786 45.7916C23.3361 50.7887 11.9279 53.3969 8.69809 43.5977C7.80835 40.9041 7.39396 38.1618 8.32026 35.3707C10.1729 29.7763 15.2797 27.9481 20.4109 26.5221C21.459 26.2296 21.0081 24.572 19.9356 24.8645Z" fill="#00477C"/>
<path d="M91.9547 8.9349C97.61 7.58202 104.874 5.5344 110.176 9.02021C114.966 12.1769 116.819 18.271 117.087 23.7191C117.416 30.4469 115.368 35.9194 108.567 38.1133C103.217 39.8318 97.9879 40.0512 92.4667 39.4296C91.3698 39.3077 91.3698 41.0262 92.4667 41.1481C99.1824 41.916 107.958 41.8307 113.711 37.7354C118.415 34.3837 119.183 27.7656 118.72 22.4637C118.232 16.9912 116.173 11.1775 111.529 7.88672C105.703 3.75494 97.866 5.7538 91.5038 7.27731C90.419 7.53326 90.8822 9.19085 91.9547 8.9349Z" fill="#00477C"/>
<path d="M92.7357 13.3105C97.806 12.4573 102.888 11.2507 107.41 14.3831C110.287 16.3819 111.652 19.2949 112.151 22.6588C112.688 26.3031 112.395 29.8376 109.068 32.1777C104.851 35.1516 98.8664 35.4563 93.9911 34.3838C92.9064 34.14 92.4432 35.8098 93.528 36.0414C103.157 38.1743 115.284 34.6519 113.931 23.061C113.456 19.0389 111.956 15.5166 108.605 13.0668C103.632 9.4225 97.9401 10.6901 92.2848 11.6407C91.1756 11.8235 91.6388 13.4933 92.7357 13.3105Z" fill="#00477C"/>
<path d="M22.5683 13.8218C44.8482 8.17865 67.6643 5.7532 90.2855 1.98707C91.3824 1.80425 90.9193 0.146665 89.8224 0.329487C67.2012 4.08343 44.385 6.52106 22.1051 12.1642C21.0325 12.4323 21.4957 14.0899 22.5683 13.8218Z" fill="#00477C"/>
<path d="M53.6109 19.075C51.5999 23.0849 47.9435 27.9602 47.2975 32.3967C47.2366 32.7989 47.3462 33.1401 47.6874 33.3717C49.6863 34.6758 52.3799 35.2365 54.6104 36.0287C54.9273 36.1384 55.4391 35.9556 55.5854 35.6387C56.3289 33.9324 57.1211 32.5551 58.1936 31.0316C57.6573 30.8853 57.1211 30.7391 56.5848 30.5928C56.7555 32.1407 56.8895 33.4205 57.1454 34.9562C57.2795 35.7971 58.7421 40.3433 58.474 41.0624C57.8036 42.8663 53.5378 43.2928 51.7339 44.207C51.4048 44.3654 51.2221 44.8407 51.3318 45.182C52.1727 47.7293 52.0264 50.0816 54.5372 50.6423C56.7798 51.142 61.1675 49.1553 63.3248 48.6069C66.9203 47.6806 70.4792 46.6568 74.0382 45.5598C74.4891 45.4258 74.7695 44.9626 74.6355 44.4995C74.2576 43.11 74.0626 41.5378 73.3435 40.2702C73.1973 40.0142 72.9047 39.8436 72.6 39.8436C71.1984 39.8558 69.492 41.099 68.1879 40.8309C65.3115 40.2214 65.0312 36.9672 64.5559 34.7002C63.6174 30.215 62.8617 25.6932 61.6429 21.2811C60.0097 15.3455 58.6202 15.1992 53.2209 18.4291C52.2702 19.0019 53.1355 20.4889 54.0862 19.916C63.8367 14.0779 60.3631 40.2336 65.5065 42.8663C66.3353 43.2929 67.8832 42.5494 68.651 42.4884C72.5512 42.1716 73.1485 43.6829 69.3093 45.182C66.25 46.3764 62.813 46.9859 59.6197 47.7415C57.8158 48.1681 56.6579 48.8628 55.0369 47.6928C51.6974 45.3039 58.1205 43.8169 59.8756 43.6951C60.424 43.6585 60.8751 43.171 60.7044 42.6103C59.5466 38.637 58.7543 34.7246 58.3033 30.605C58.2058 29.7518 57.2064 29.4471 56.6945 30.1662C55.8169 31.4094 55.3416 32.8842 53.9156 33.3961C51.7949 34.1639 49.8935 32.3845 50.0154 30.0444C50.1739 27.1192 53.7571 22.573 55.0857 19.9404C55.5976 18.9532 54.1106 18.0878 53.6109 19.075Z" fill="#00477C"/>
<path d="M85.5083 9.90976C86.7637 18.1246 89.4572 31.1781 84.2529 38.43C83.6069 39.3319 85.0939 40.1973 85.7399 39.2953C91.383 31.4218 88.5188 18.2952 87.1781 9.44662C87.0074 8.36188 85.3499 8.82502 85.5083 9.90976Z" fill="#00477C"/>
<path d="M81.584 46.0109C80.0726 47.7294 78.2322 49.0701 76.0993 49.9233C75.0877 50.3255 75.5265 51.9953 76.5625 51.5809C78.9757 50.618 81.0843 49.1798 82.8028 47.2175C83.5341 46.4009 82.3274 45.1699 81.584 46.0109Z" fill="#00477C"/>
<path d="M75.2214 62.3308C75.7942 62.4527 75.8796 63.0987 75.6967 63.5862C75.4408 64.2687 74.7704 64.7684 74.2219 65.2194C73.3688 65.9385 74.5998 67.1451 75.4408 66.4382C76.4402 65.6094 77.4884 64.5856 77.5128 63.184C77.5249 62.0383 76.8424 60.9048 75.6845 60.6611C74.5998 60.4417 74.1366 62.0993 75.2214 62.3308Z" fill="#00477C"/>
<path d="M71.3213 77.1149C72.6742 82.1608 74.2221 87.2676 78.4148 90.6924C79.268 91.3872 80.4868 90.1805 79.6336 89.4736C75.6481 86.2072 74.2708 81.4417 72.9789 76.6517C72.6864 75.5792 71.0288 76.0423 71.3213 77.1149Z" fill="#00477C"/>
</svg>
