<svg width="67" height="47" viewBox="0 0 67 47" fill="none" xmlns="http://www.w3.org/2000/svg">
<path d="M10.4896 11.2803L1.07959 36.0733L14.7896 21.4978L66.1996 22.9114L10.4896 11.2803Z" fill="#002C44"/>
<path d="M1.36963 0C1.36963 0 11.8096 8.7843 10.3896 11.5727L65.7096 22.6286C65.6996 22.6286 39.0896 4.43602 1.36963 0Z" fill="#FF7B3A"/>
<path d="M0.659715 36.551C0.229715 37.3407 21.6297 34.4256 21.6297 34.4256L14.2897 21.2053C14.2897 21.2053 4.44971 29.6386 0.659715 36.551Z" fill="#FBC949"/>
<path d="M14.2896 21.2051C14.2896 21.2051 24.3496 37.2528 18.7196 46.5733L66.5896 22.8333C66.5896 22.8333 19.3796 20.2594 14.2896 21.2051Z" fill="#F75E28"/>
</svg>
