<svg width="245" height="226" viewBox="0 0 245 226" fill="none" xmlns="http://www.w3.org/2000/svg">
<path d="M113.106 1C122.638 6.19214 133.375 8.58102 143.845 11.4574C177.606 20.7082 211.136 36.4187 232.648 64.0248C254.16 91.631 260.449 133.168 240.156 161.701C231.843 173.401 219.899 182.067 207.369 189.051C192.878 197.131 176.692 203.372 160.116 202.531C141.749 201.604 125.063 192.207 107.561 186.577C83.7818 178.922 58.0283 178.252 33.5179 182.993C23.5968 184.919 13.2369 188.088 6.71624 195.803C0.195586 203.518 -0.267595 216.998 8.13003 222.592C14.2485 226.675 22.8655 225.14 28.7402 220.715C34.6149 216.291 38.2713 209.551 41.2208 202.811C44.2313 195.937 46.3276 186.906 40.8917 181.726C38.5516 179.495 35.2974 178.557 32.1285 177.923C21.8539 175.863 11.0918 176.278 1 179.142" stroke="#00477C" stroke-width="1.82822" stroke-miterlimit="10" stroke-linecap="round" stroke-dasharray="11.87 11.87"/>
</svg>
