<svg width="161" height="34" viewBox="0 0 161 34" fill="none" xmlns="http://www.w3.org/2000/svg">
<path opacity="0.5" d="M159.154 9.61687C159.196 10.0641 159.018 10.7228 158.193 11.6295C157.37 12.5328 156.04 13.5254 154.165 14.5709C150.424 16.6561 144.834 18.7785 137.753 20.7979C123.615 24.8298 103.831 28.3693 81.7616 30.4409C59.6924 32.5125 39.5948 32.7166 24.954 31.386C17.6211 30.7196 11.7334 29.6746 7.67016 28.3219C5.63303 27.6437 4.14109 26.916 3.16498 26.1816C2.18512 25.4443 1.88771 24.8303 1.84572 24.383C1.80374 23.9358 1.9817 23.2771 2.80724 22.3704C3.62962 21.4672 4.96007 20.4745 6.83541 19.4291C10.576 17.3438 16.1664 15.2214 23.2471 13.202C37.3846 9.17013 57.169 5.63063 79.2383 3.55904C101.308 1.48745 121.405 1.28333 136.046 2.61387C143.379 3.28027 149.267 4.32528 153.33 5.67799C155.367 6.35617 156.859 7.08391 157.835 7.81835C158.815 8.55561 159.112 9.16961 159.154 9.61687Z" stroke="url(#paint0_linear_303_446)" stroke-width="3"/>
<defs>
<linearGradient id="paint0_linear_303_446" x1="0.35229" y1="24.5232" x2="160.648" y2="9.47669" gradientUnits="userSpaceOnUse">
<stop stop-color="#4A3AFF"/>
<stop offset="1" stop-color="#2C2399"/>
</linearGradient>
</defs>
</svg>
