<svg width="74" height="107" viewBox="0 0 74 107" fill="none" xmlns="http://www.w3.org/2000/svg">
<path d="M14.9703 8.97079C6.81659 26.8976 4.73238 46.627 5.88714 66.1311C6.54901 77.3407 6.25329 102.393 20.6455 106.167C35.3193 110.012 42.6562 91.4653 44.9234 80.5655C48.5567 63.0048 47.8807 44.2189 42.0084 27.2074C39.1356 18.8707 35.0095 9.1257 28.433 3.01395C22.6311 -2.37959 16.8009 0.169317 11.675 5.14039C11.0413 5.76001 12.0129 6.71762 12.6467 6.11208C31.517 -12.1668 43.9095 35.6146 45.2051 48.0916C46.7823 63.3569 46.2613 83.0581 37.671 96.3659C35.2348 100.14 31.6156 103.59 27.1233 104.703C18.4627 106.829 13.562 100.436 11.1962 93.4086C8.30929 84.8465 7.80235 75.1016 7.26722 66.1452C6.12655 46.9087 8.11216 27.3624 16.1532 9.67491C16.5193 8.87222 15.3364 8.1681 14.9703 8.97079Z" fill="#00477C"/>
<path d="M-22.7136 47.9515C-10.6591 60.0905 3.8457 69.6665 20.1249 75.1164C33.2919 79.5242 52.6974 83.3968 65.794 76.8063C80.6791 69.3145 72.3564 53.0775 62.3298 45.5716C47.7404 34.6578 28.9827 30.7006 11.1404 29.6163C-0.0269089 28.9404 -34.0076 29.0248 -28.3747 48.5289C-28.1353 49.3739 -26.8116 49.0077 -27.051 48.1628C-31.3602 33.2636 -7.57506 30.8837 2.1136 30.7288C10.901 30.588 19.8855 31.4188 28.5039 33.0946C37.9391 34.9253 47.1771 37.9812 55.5279 42.7974C63.8929 47.6136 77.1585 58.0204 71.5397 69.1737C63.7803 84.5798 34.3622 78.2849 21.4909 74.1306C5.04271 68.8216 -9.61702 59.2315 -21.756 46.9939C-22.3756 46.3602 -23.3332 47.3319 -22.7136 47.9515Z" fill="#00477C"/>
<path d="M-18.8982 81.6782C-5.59039 63.3711 8.06949 45.2331 23.5601 28.6863C30.9252 20.8283 38.6987 13.083 47.9508 7.43601C53.9217 3.78868 64.3144 -0.407876 67.5111 9.40753C69.3982 15.1813 66.2438 22.0253 63.709 26.9823C54.8793 44.2895 41.0927 60.8081 27.0244 74.0878C19.6452 81.0445 11.5338 87.2407 2.60557 92.071C-2.06977 94.6058 -8.94199 98.5207 -14.3637 96.2675C-25.1508 91.7893 -13.9553 77.9182 -10.7445 73.44C-10.2376 72.7218 -11.4205 72.0459 -11.9274 72.75C-15.279 77.4112 -24.6297 87.973 -20.3065 94.0707C-16.3352 99.6755 -7.84357 98.3236 -2.53452 96.1267C16.5471 88.2406 32.3052 72.2149 44.9934 56.4144C51.5136 48.2889 58.0056 39.7973 63.216 30.7564C66.8915 24.3912 71.3838 15.7023 68.511 8.21053C62.0472 -8.6883 39.3465 11.3509 32.5728 17.6457C12.4773 36.2908 -4.02725 58.8929 -20.0952 80.9741C-20.5881 81.7064 -19.4052 82.3823 -18.8982 81.6782Z" fill="#00477C"/>
<path d="M22.2222 49.2473C17.4342 54.0634 26.3483 62.2312 30.0098 56.6264C31.6011 54.1902 30.7139 50.1626 28.0523 48.8389C25.1091 47.3884 21.4054 49.5148 19.7015 51.8807C19.1804 52.5989 20.3633 53.2748 20.8844 52.5707C22.0673 50.9371 23.9262 49.8528 25.9681 49.8246C28.686 49.7824 30.2773 53.2326 29.0662 55.5421C26.7426 60.0062 19.5888 53.8522 23.1939 50.2189C23.8135 49.5852 22.8418 48.6276 22.2222 49.2473Z" fill="#00477C"/>
<path d="M-5.53345 93.7327C-6.29389 96.4788 -4.94196 99.4783 -2.42121 100.788C-0.252532 101.929 2.69068 101.548 3.69052 99.07C4.60588 96.8309 2.97233 93.7046 0.479748 93.4229C-1.91425 93.1553 -2.88593 95.7888 -2.02691 97.6617C-1.66077 98.4644 -0.477856 97.7603 -0.843997 96.9717C-1.30872 95.9718 -0.815831 94.5495 0.521993 94.803C1.18386 94.9297 1.83166 95.6198 2.15555 96.169C3.11315 97.7885 2.31043 99.8726 0.32482 100.07C-2.75922 100.366 -4.9842 96.8308 -4.22376 94.0848C-3.97027 93.2398 -5.29405 92.8878 -5.53345 93.7327Z" fill="#00477C"/>
<path d="M62.4562 24.4757C59.1468 29.0102 66.4696 42.9658 70.7929 37.3047C72.6377 34.8966 71.7224 29.32 69.9198 27.0528C67.4132 23.9124 63.8644 25.7713 61.5831 28.0103C60.9494 28.63 61.9211 29.5876 62.5548 28.982C64.9347 26.6584 68.4552 25.5178 69.7085 29.6862C69.9761 30.6015 70.117 31.6436 70.2015 32.573C70.2719 33.1223 70.3001 33.6574 70.3001 34.2066C70.5395 35.4458 70.0043 36.1218 68.6947 36.2204C67.7371 37.1639 66.9343 37.0935 66.2865 36.0091C65.8218 35.4599 65.3993 34.8825 65.0332 34.2629C64.5966 33.5729 64.2165 32.8406 63.8785 32.0942C62.9068 29.9256 62.09 27.264 63.625 25.1657C64.1601 24.4475 62.9772 23.7716 62.4562 24.4757Z" fill="#00477C"/>
<path d="M13.8999 3.19723C9.08376 4.11258 10.844 10.8017 12.7733 13.59C14.8434 16.5896 18.7302 17.1388 19.8286 13.0408C20.5609 10.2947 19.8849 2.80292 15.8292 2.78884C11.3933 2.77476 10.8018 9.44979 10.5906 12.5197C10.5342 13.3929 11.9002 13.3929 11.9566 12.5197C12.0974 10.4637 12.21 8.12606 13.2381 6.28127C14.1957 4.54914 15.7447 3.63378 17.3783 5.35183C18.2232 6.22494 18.5189 8.26688 18.6598 9.42163C18.8006 10.5905 18.8991 12.1254 18.3218 13.1957C17.2233 15.2799 15.2659 14.6039 14.1112 13.083C12.6184 11.1115 10.4497 5.23917 14.2801 4.50689C15.1251 4.35198 14.7589 3.04232 13.8999 3.19723Z" fill="#00477C"/>
<path d="M34.8264 90.7053C34.6011 95.2398 37.4598 99.9715 41.6845 101.76C45.4445 103.351 49.4157 101.704 48.9651 97.2536C48.5426 93.1275 45.5853 86.889 40.5438 87.2974C35.2066 87.734 35.7558 94.4512 37.0232 97.9859C37.319 98.8027 38.6427 98.4506 38.347 97.6198C37.2486 94.5498 36.7275 86.8749 42.3605 89.0014C45.3741 90.142 48.0498 94.8033 47.6554 98.0845C47.0781 102.802 41.8113 100.873 39.5158 98.7041C37.3331 96.634 36.0375 93.733 36.1783 90.7194C36.2347 89.8322 34.8686 89.8322 34.8264 90.7053Z" fill="#00477C"/>
</svg>
