<svg width="151" height="150" viewBox="0 0 151 150" fill="none" xmlns="http://www.w3.org/2000/svg">
<path d="M93.5874 52.5873L93.7038 53.7633L94.8444 53.4539L141.767 40.7251L106.793 73.819L105.909 74.6556L106.902 75.3606L146.466 103.464L98.1452 97.104L96.9541 96.9472L97.016 98.147L99.4853 145.964L74.1641 104.881L73.5486 103.882L72.6599 104.648L36.1049 136.156L52.9123 91.3219L53.334 90.1969L52.1513 89.9863L4.16869 81.4432L50.3768 66.6132L51.5359 66.2412L50.946 65.1764L27.6117 23.0593L68.4917 49.3758L69.4854 50.0155L69.9518 48.9296L88.8679 4.88967L93.5874 52.5873Z" stroke="#FFB100" stroke-width="2"/>
</svg>
